<svg xmlns="http://www.w3.org/2000/svg" >

<!-- Icon 1 - Galaxy -->
  <symbol id="galaxy" viewBox="0 0 360 360">
    <title>galaxy</title>
    <g>
      <path d="M360,180a179.9,179.9,0,1,0-98.25,160.4A13.5,13.5,0,0,0,283.9,327,179.78,179.78,0,0,0,360,180ZM279.65,320.15a13.51,13.51,0,0,0-22,13.19A171.64,171.64,0,1,1,279.65,320.15Z" transform="translate(0 0)"/>
      <path d="M180,71A109,109,0,1,0,289,180,109,109,0,0,0,180,71Zm0.53,212.81A103.82,103.82,0,1,1,284.35,180,103.82,103.82,0,0,1,180.53,283.82Z" transform="translate(0 0)"/>
      <path d="M240.08,46.76A24.85,24.85,0,0,0,191.9,34.64q-5.46-.41-11-0.41A145.85,145.85,0,0,0,37.16,204.46a18.56,18.56,0,0,0,8.58,35,18.76,18.76,0,0,0,2-.11A145.8,145.8,0,1,0,240.08,46.76Zm-58.49,272.1A138.88,138.88,0,0,1,55,237a18.56,18.56,0,0,0-9.21-34.68c-0.4,0-.8,0-1.19.06a138.92,138.92,0,0,1,137-161.27c3.18,0,6.33.12,9.45,0.33A24.85,24.85,0,0,0,237.73,53,138.87,138.87,0,0,1,181.59,318.85Z" transform="translate(0 0)"/>
      <circle cx="180" cy="180" r="54.3"/>
    </g>
  </symbol>


  <!-- Icon 2 - The planet Saturn -->
  <symbol id="saturn" viewBox="0 0 353.99 260.42">
    <title>saturn</title>
    <g>
      <path d="M56,99.24c0-1.13,0-2.18-.13-3.19A17.85,17.85,0,0,0,56,99.24Z" transform="translate(-3 -43.18)"/>
      <path d="M69.42,80.32a7.76,7.76,0,0,0,1.35-.24C70.3,80.14,69.85,80.23,69.42,80.32Z" transform="translate(-3 -43.18)"/>
      <path d="M55.89,96.06C56.07,91.28,58,82.6,69.42,80.32c-3.57.35-13-.65-12.94-21.19l-0.06-1.42c-1.33,20.77.8,19.39-13.88,22.15C42.55,79.86,54.53,79.37,55.89,96.06Z" transform="translate(-3 -43.18)"/>
      <path d="M354.15,84.14c-10.21-21.76-48.36-27.28-95.93-19.9l1.35,1.11A130.23,130.23,0,0,0,57.21,161.45l0.05-3.14C19.72,190.79-5,225.59,5.4,247.78c10.15,21.63,45.87,28.34,93,21.16a130.2,130.2,0,0,0,218.65-95.55q0-4.76-.34-9.44C348.51,134,363.74,104.58,354.15,84.14ZM39.58,232c-5.63-12-.66-27.86,12.34-44.91l5-5.36v-0.6a129.55,129.55,0,0,0,25.58,70.1C60.81,250.4,45.25,244.08,39.58,232Zm264.75-7.46c-12,2.13-14,11.2-14.12,16,0.07,1,.13,1.93.13,3a18.48,18.48,0,0,1-.13-3c-1.29-16.85-13.34-16.38-13.34-16.38,14.67-2.76,12.55-1.38,13.88-22.15l0.06,1.42c-0.08,21.86,10.6,21.59,13.53,21.11,0.26,0,.48-0.12.75-0.16C305.09,224.38,304.8,224.46,304.33,224.54ZM278.27,80.66l0.53,0c21.43,0.9,36.81,7.21,42.44,19.21,5.06,10.78,1.57,24.66-8.61,39.73A130.08,130.08,0,0,0,278.27,80.66Z" transform="translate(-3 -43.18)"/>
    </g>
  </symbol>


  <!-- Icon 3 - A Spaceship-->
  <symbol id="spaceship" viewBox="0 0 319.33 316.18">
    <title>spaceship</title>
    <g>
      <path d="M85.45,295c-6.84,0-7.33,7.14-7.33,7.14v21s1.3,6.19,7.33,6.19,7.33-4.23,7.33-4.23v-23S92.29,295,85.45,295Z" transform="translate(-20.33 -21.91)"/>
      <path d="M110.69,302.79c-6.84,0-7.33,7.14-7.33,7.14v21s1.3,6.19,7.33,6.19S118,332.9,118,332.9v-23S117.53,302.77,110.69,302.79Z" transform="translate(-20.33 -21.91)"/>
      <path d="M135.2,295c-6.84,0-7.33,7.14-7.33,7.14v21s1.3,6.19,7.33,6.19,7.33-4.23,7.33-4.23v-23S142,295,135.2,295Z" transform="translate(-20.33 -21.91)"/>
      <path d="M231.52,295.93c-6.84,0-7.33,7.14-7.33,7.14v21s1.3,6.19,7.33,6.19,7.33-4.23,7.33-4.23v-23S238.36,295.91,231.52,295.93Z" transform="translate(-20.33 -21.91)"/>
      <path d="M256.42,303.75c-6.84,0-7.33,7.14-7.33,7.14v21s1.3,6.19,7.33,6.19,7.33-4.23,7.33-4.23v-23S263.26,303.73,256.42,303.75Z" transform="translate(-20.33 -21.91)"/>
      <path d="M280.11,295.93c-6.84,0-7.33,7.14-7.33,7.14v21s1.3,6.19,7.33,6.19,7.33-4.23,7.33-4.23v-23S287,295.91,280.11,295.93Z" transform="translate(-20.33 -21.91)"/>
      <path d="M278,194.43V129.28l-18.79-30h-6l-18.52,27.53v41.61l-16.56-10-0.77-88.49s-5.66-34.18-33-48c0,0-31.89,14.2-33.43,48.82s0,86.76,0,86.76l-16.53,9.16V129.53L115.4,99.24h-6.06L90.67,127v63.86L21.28,229.32l-0.94,31.46H90.67V284h43.68V260.77h20L142,294.27h83.41L213.5,260.77h21.14v21.67H278V260.77h61.71V231.53Z" transform="translate(-20.33 -21.91)"/>
    </g>
  </symbol>


  <!-- Icon 4 - A generic planet -->
  <symbol id="planet" viewBox="0 0 360.53 360.63">
    <title>planet</title>
    <path d="M249,181.32l111.29-7.07A180.31,180.31,0,0,0,32.33,76.59L32.79,76l125,21.94L15.17,107s0.34-.8.95-2.17a181,181,0,0,0-12,114.95L4,219.08l176,14.66L13.15,248.35a180.88,180.88,0,0,0,58.8,76c4.59-2.83,3.82-8.68,5-27.06l0.08,2c-0.1,28.43,13,29.83,17.91,29.34,0.61-.12,1.23-0.24,1.87-0.33a10.71,10.71,0,0,1-1.87.33A25.23,25.23,0,0,0,84.58,333a179.46,179.46,0,0,0,95.47,27.34c92.6,0,168.88-69.81,179.13-159.66Z" transform="translate(0.27 0.32)"/>
  </symbol>



  <!-- Icon 5 - The Earth-->
  <symbol id="earth" viewBox="0 0 357.14 355.91">
    <title>earth</title>
    <path d="M200.93,2a0.87,0.87,0,0,1-.64.68c-11.22,5.65-5.53,11.8-5.53,11.8,16,26.77,28.76,29.24,34.62,27.28s2.82-25.4,4.12-26.7,8,0,8,0c48.19,30.39,37.12,65.78,37.12,65.78-67.08,19.54-57.1,57.75-57.1,57.75-6.3,10.42-10.42.65-10.42,0.65s7.29-10.78-9-13.16-30.3,6-25.45,15.12,22.07,8.25,22.07,8.25c5.42-3.25,14.3,29.91,14.3,29.91,12.59,9.55,6.54-9.12,26.41-4.87,38.2,8.16,63,40.53,57.42,67-5.7,27.12-52.32,68.38-61.65,75.55s-34.73,11.29-18.67-11.51,8.9-42.33,8.9-42.33-19.1-25.83-22.14-31.7-0.8-13.19-1.47-16.2c-1.39-6.26,7.9-25.49,7.9-25.49-8.25-2.39-10.23-5.12-14-13.88-5.28-12.18-25.65-10.49-42.55-18.67s-22.58-31-34.08-45.59-11.4-25.88-11.4-25.88c4.62-44.18-15.42-61.75-15.59-61.9A178.6,178.6,0,1,0,200.93,2Z" transform="translate(-1.43 -2.04)"/>
  </symbol>


  <!-- Icon 6 - The Sun -->
  <symbol id="sun" viewBox="0 0 360 341.93">
    <title>sun</title>
    <path d="M280.22,143.14" transform="translate(0 -9.01)" stroke="#000" stroke-miterlimit="10" stroke-width="5.02"/>
    <path d="M73.15,151.21" transform="translate(0 -9.01)" stroke="#000" stroke-miterlimit="10" stroke-width="4.75"/>
    <circle cx="180.96" cy="173.12" r="53.7"/>
    <g>
      <line x1="239.24" y1="114.07" x2="301.57" y2="42.04"/>
      <polygon points="237 112.13 301.57 42.04 241.48 116 237 112.13"/>
    </g>
    <g>
      <line x1="126.4" y1="222.27" x2="64.07" y2="294.3"/>
      <polygon points="128.64 224.21 64.07 294.3 124.17 220.34 128.64 224.21"/>
    </g>
    <g>
      <line x1="186.48" y1="246.67" x2="186.37" y2="341.93"/>
      <polygon points="189.44 246.68 186.37 341.93 183.52 246.67 189.44 246.68"/>
    </g>
    <g>
      <line x1="181.38" y1="95.25" x2="180.55"/>
      <polygon points="178.42 95.27 180.55 0 184.34 95.22 178.42 95.27"/>
    </g>
    <g>
      <line x1="95.24" y1="172.29" y2="173.94"/>
      <polygon points="95.29 175.25 0 173.94 95.19 169.33 95.29 175.25"/>
    </g>
    <g>
      <line x1="264.77" y1="172.29" x2="360" y2="170.21"/>
      <polygon points="264.71 169.33 360 170.22 264.83 175.25 264.71 169.33" fill="#020202"/>
    </g>
    <g>
      <line x1="239.24" y1="222.4" x2="321.75" y2="283.78"/>
      <polygon points="241.2 219.77 321.75 283.78 237.28 225.03 241.2 219.77"/>
    </g>
    <g>
      <line x1="112.26" y1="119.19" x2="30.3" y2="58.06"/>
      <polygon points="110.31 121.8 30.3 58.05 114.2 116.57 110.31 121.8"/>
    </g>
  </symbol>

</svg>
