<svg id="earth" xmlns="http://www.w3.org/2000/svg" viewBox="0 0 357.14 355.91">
  <title>earth</title>
  <path d="M200.93,2a0.87,0.87,0,0,1-.64.68c-11.22,5.65-5.53,11.8-5.53,11.8,16,26.77,28.76,29.24,34.62,27.28s2.82-25.4,4.12-26.7,8,0,8,0c48.19,30.39,37.12,65.78,37.12,65.78-67.08,19.54-57.1,57.75-57.1,57.75-6.3,10.42-10.42.65-10.42,0.65s7.29-10.78-9-13.16-30.3,6-25.45,15.12,22.07,8.25,22.07,8.25c5.42-3.25,14.3,29.91,14.3,29.91,12.59,9.55,6.54-9.12,26.41-4.87,38.2,8.16,63,40.53,57.42,67-5.7,27.12-52.32,68.38-61.65,75.55s-34.73,11.29-18.67-11.51,8.9-42.33,8.9-42.33-19.1-25.83-22.14-31.7-0.8-13.19-1.47-16.2c-1.39-6.26,7.9-25.49,7.9-25.49-8.25-2.39-10.23-5.12-14-13.88-5.28-12.18-25.65-10.49-42.55-18.67s-22.58-31-34.08-45.59-11.4-25.88-11.4-25.88c4.62-44.18-15.42-61.75-15.59-61.9A178.6,178.6,0,1,0,200.93,2Z" transform="translate(-1.43 -2.04)"/>
</svg>
