<svg id="galaxy" xmlns="http://www.w3.org/2000/svg" viewBox="0 0 360 360">
  <title>galaxy</title>
  <g>
    <path d="M360,180a179.9,179.9,0,1,0-98.25,160.4A13.5,13.5,0,0,0,283.9,327,179.78,179.78,0,0,0,360,180ZM279.65,320.15a13.51,13.51,0,0,0-22,13.19A171.64,171.64,0,1,1,279.65,320.15Z" transform="translate(0 0)"/>
    <path d="M180,71A109,109,0,1,0,289,180,109,109,0,0,0,180,71Zm0.53,212.81A103.82,103.82,0,1,1,284.35,180,103.82,103.82,0,0,1,180.53,283.82Z" transform="translate(0 0)"/>
    <path d="M240.08,46.76A24.85,24.85,0,0,0,191.9,34.64q-5.46-.41-11-0.41A145.85,145.85,0,0,0,37.16,204.46a18.56,18.56,0,0,0,8.58,35,18.76,18.76,0,0,0,2-.11A145.8,145.8,0,1,0,240.08,46.76Zm-58.49,272.1A138.88,138.88,0,0,1,55,237a18.56,18.56,0,0,0-9.21-34.68c-0.4,0-.8,0-1.19.06a138.92,138.92,0,0,1,137-161.27c3.18,0,6.33.12,9.45,0.33A24.85,24.85,0,0,0,237.73,53,138.87,138.87,0,0,1,181.59,318.85Z" transform="translate(0 0)"/>
    <circle cx="180" cy="180" r="54.3"/>
  </g>
</svg>
