<svg id="Layer_1" data-name="Layer 1" xmlns="http://www.w3.org/2000/svg" viewBox="0 0 360 360"><title>milkyway</title><path d="M188.22,178.22a11.78,11.78,0,1,1-11.78-11.46,12.85,12.85,0,0,1,9.09,4.17A11.82,11.82,0,0,1,188.22,178.22Z" transform="translate(0)"/><path d="M197.92,161.37a61.2,61.2,0,0,0,4.16-6.74c3.45-7.32.25-17.94-4.16-24.27-9.89-14.21-30.73-13.65-37.41-13.48-21.75.58-36.79,12.76-44.34,18.88-7,5.63-23.85,19.3-29.1,43.13-4.43,20.06,1.83,36.24,5.54,45.83a89.8,89.8,0,0,0,24.94,36.4c10.32,8.95,19.81,12.71,38.8,20.22s29.79,11.78,45.73,13.48c26.22,2.79,46.74-3.53,56.81-6.74a154.5,154.5,0,0,0,38.8-18.87,151.39,151.39,0,0,0,30.49-27c8.67-10.14,23.88-27.93,29.1-55.27,3.1-16.25,1.2-28.38-1.39-44.48-2.88-18-8.05-50.16-30.48-80.88-24-32.85-56.08-48.08-56.82-47.18S296.36,30.24,318.48,63c7.32,10.82,29.64,44.88,26.33,91.66-.74,10.46-2.78,35-19.4,60.66-23.55,36.37-59.6,49.13-70.67,52.57-10.5,3.25-52.26,15.51-94.23-5.39-13.73-6.84-46.37-23.09-51.27-56.62-3.88-26.48,10.91-54.35,33.25-66,1.28-.67,26.93-13.69,44.35-2.7,1.95,1.24,8.44,5.33,9.7,12.14,2.11,11.42-11.74,23.79-11.09,24.26s4.58-3.16,5.54-4A48.39,48.39,0,0,0,197.92,161.37Z" transform="translate(0)"/><path d="M160.24,156.82a65.53,65.53,0,0,0-7.05-3.85c-7.62-3.13-18.44.3-24.81,4.77-14.3,10-13.11,30.29-12.73,36.78,1.24,21.13,14.2,35.39,20.71,42.55,6,6.6,20.54,22.61,45.19,27,20.74,3.7,37.18-2.87,46.93-6.76,6.51-2.6,22.84-9.33,36.65-25.33,8.89-10.3,12.47-19.65,19.62-38.33S296,164.35,297.24,148.8c2.09-25.57-5-45.34-8.61-55A147.36,147.36,0,0,0,268.08,56.6a150.53,150.53,0,0,0-28.61-28.84c-10.67-8.13-29.4-22.4-57.65-26.65C165-1.43,152.62.78,136.15,3.78,117.8,7.11,84.85,13.1,54,35.83c-33,24.29-47.74,56-46.79,56.64S22.58,65,55.54,42.52c10.91-7.44,45.24-30.15,93.4-28.33,10.78.41,36,1.66,62.91,17.06C249.93,53.07,264.12,87.74,268,98.4c3.66,10.11,17.49,50.35-2.73,91.79-6.62,13.55-22.35,45.77-56.65,51.53-27.09,4.56-56.17-9-68.86-30.37-.72-1.22-14.87-25.77-4.09-43,1.21-1.94,5.22-8.37,12.18-9.8,11.67-2.39,24.8,10.71,25.26,10.06s-3.39-4.36-4.32-5.27A50.18,50.18,0,0,0,160.24,156.82Z" transform="translate(0)"/><path d="M161.32,201.47a61.91,61.91,0,0,0-2.53,7.47c-1.72,7.87,3.81,17.55,9.53,22.78,12.86,11.75,33.07,6.76,39.55,5.16,21.08-5.21,33-20.3,39-27.88,5.51-7,18.9-23.93,18.65-48.3-.21-20.52-10-35-15.75-43.53A91.4,91.4,0,0,0,217.22,87c-12.09-6.53-22.2-8.17-42.42-11.44s-31.72-5.13-47.65-3.38c-26.21,2.88-44.81,13.42-53.91,18.71a151.66,151.66,0,0,0-33.59,26.7A148.58,148.58,0,0,0,16,150.39C9.82,162.13-1,182.73.08,210.53c.64,16.51,5.23,27.94,11.39,43.1,6.86,16.89,19.18,47.21,48,72.39C90.28,352.94,125,361,125.54,359.91s-30.65-9.49-59.62-36.68c-9.59-9-39-37.47-46.37-83.81-1.64-10.36-5.19-34.72,5.23-63.32,14.77-40.52,47.05-60.67,57.08-66.38,9.5-5.42,47.48-26.29,93.14-14.87,14.94,3.74,50.45,12.62,62.8,44.28,9.76,25,1.63,55.36-17.53,71.55-1.1.92-23.18,19.1-42.65,12.1-2.19-.79-9.44-3.4-12.21-9.77-4.64-10.69,6.08-25.72,5.34-26S167,191,166.26,192.1A48.42,48.42,0,0,0,161.32,201.47Z" transform="translate(0)"/><path d="M195.7,193.1a63.7,63.7,0,0,0,7.77,2.16c8.16,1.35,17.87-4.41,23-10.19,11.55-13,5.6-32.41,3.69-38.64C224,126.15,208,115.17,200,109.65c-7.39-5.08-25.34-17.4-50.36-16.17-21.06,1-35.51,11.11-44.08,17.07-5.72,4-20,14.2-29.68,32.86-6.21,12-7.48,21.91-10,41.7s-4,31-1.54,46.45c4,25.36,15.61,43,21.4,51.64a149.74,149.74,0,0,0,28.79,31.57,153.36,153.36,0,0,0,34.66,21.66c12.31,5.52,33.91,15.21,62.41,13,16.94-1.29,28.5-6.22,43.81-12.82,17.07-7.35,47.72-20.55,72.42-49.58,26.4-31,33.22-65.14,32.13-65.6s-8.51,30.18-35.27,59.44c-8.85,9.68-36.89,39.47-84.19,48.47-10.58,2-35.46,6.45-65.26-2.52C133,314.14,111,283.57,104.67,274.06c-5.94-9-28.93-45.09-19-89.94,3.23-14.67,10.92-49.54,42.94-62.83,25.28-10.49,56.79-3.82,74.19,14.15,1,1,20.57,21.75,14.16,41-.72,2.16-3.1,9.31-9.53,12.26-10.79,4.94-26.67-4.87-27-4.13s4.32,3.48,5.45,4.16A49.79,49.79,0,0,0,195.7,193.1Z" transform="translate(0)"/></svg>