<svg id="planet" xmlns="http://www.w3.org/2000/svg" viewBox="0 0 360.53 360.63">
  <title>planet</title>
  <path d="M249,181.32l111.29-7.07A180.31,180.31,0,0,0,32.33,76.59L32.79,76l125,21.94L15.17,107s0.34-.8.95-2.17a181,181,0,0,0-12,114.95L4,219.08l176,14.66L13.15,248.35a180.88,180.88,0,0,0,58.8,76c4.59-2.83,3.82-8.68,5-27.06l0.08,2c-0.1,28.43,13,29.83,17.91,29.34,0.61-.12,1.23-0.24,1.87-0.33a10.71,10.71,0,0,1-1.87.33A25.23,25.23,0,0,0,84.58,333a179.46,179.46,0,0,0,95.47,27.34c92.6,0,168.88-69.81,179.13-159.66Z" transform="translate(0.27 0.32)"/>
</svg>
