<svg id="saturn" xmlns="http://www.w3.org/2000/svg" viewBox="0 0 353.99 260.42">
  <title>saturn</title>
  <g>
    <path d="M56,99.24c0-1.13,0-2.18-.13-3.19A17.85,17.85,0,0,0,56,99.24Z" transform="translate(-3 -43.18)"/>
    <path d="M69.42,80.32a7.76,7.76,0,0,0,1.35-.24C70.3,80.14,69.85,80.23,69.42,80.32Z" transform="translate(-3 -43.18)"/>
    <path d="M55.89,96.06C56.07,91.28,58,82.6,69.42,80.32c-3.57.35-13-.65-12.94-21.19l-0.06-1.42c-1.33,20.77.8,19.39-13.88,22.15C42.55,79.86,54.53,79.37,55.89,96.06Z" transform="translate(-3 -43.18)"/>
    <path d="M354.15,84.14c-10.21-21.76-48.36-27.28-95.93-19.9l1.35,1.11A130.23,130.23,0,0,0,57.21,161.45l0.05-3.14C19.72,190.79-5,225.59,5.4,247.78c10.15,21.63,45.87,28.34,93,21.16a130.2,130.2,0,0,0,218.65-95.55q0-4.76-.34-9.44C348.51,134,363.74,104.58,354.15,84.14ZM39.58,232c-5.63-12-.66-27.86,12.34-44.91l5-5.36v-0.6a129.55,129.55,0,0,0,25.58,70.1C60.81,250.4,45.25,244.08,39.58,232Zm264.75-7.46c-12,2.13-14,11.2-14.12,16,0.07,1,.13,1.93.13,3a18.48,18.48,0,0,1-.13-3c-1.29-16.85-13.34-16.38-13.34-16.38,14.67-2.76,12.55-1.38,13.88-22.15l0.06,1.42c-0.08,21.86,10.6,21.59,13.53,21.11,0.26,0,.48-0.12.75-0.16C305.09,224.38,304.8,224.46,304.33,224.54ZM278.27,80.66l0.53,0c21.43,0.9,36.81,7.21,42.44,19.21,5.06,10.78,1.57,24.66-8.61,39.73A130.08,130.08,0,0,0,278.27,80.66Z" transform="translate(-3 -43.18)"/>
  </g>
</svg>
