<svg id="spaceship" xmlns="http://www.w3.org/2000/svg" viewBox="0 0 319.33 316.18">
  <title>spaceship</title>
  <g>
    <path d="M85.45,295c-6.84,0-7.33,7.14-7.33,7.14v21s1.3,6.19,7.33,6.19,7.33-4.23,7.33-4.23v-23S92.29,295,85.45,295Z" transform="translate(-20.33 -21.91)"/>
    <path d="M110.69,302.79c-6.84,0-7.33,7.14-7.33,7.14v21s1.3,6.19,7.33,6.19S118,332.9,118,332.9v-23S117.53,302.77,110.69,302.79Z" transform="translate(-20.33 -21.91)"/>
    <path d="M135.2,295c-6.84,0-7.33,7.14-7.33,7.14v21s1.3,6.19,7.33,6.19,7.33-4.23,7.33-4.23v-23S142,295,135.2,295Z" transform="translate(-20.33 -21.91)"/>
    <path d="M231.52,295.93c-6.84,0-7.33,7.14-7.33,7.14v21s1.3,6.19,7.33,6.19,7.33-4.23,7.33-4.23v-23S238.36,295.91,231.52,295.93Z" transform="translate(-20.33 -21.91)"/>
    <path d="M256.42,303.75c-6.84,0-7.33,7.14-7.33,7.14v21s1.3,6.19,7.33,6.19,7.33-4.23,7.33-4.23v-23S263.26,303.73,256.42,303.75Z" transform="translate(-20.33 -21.91)"/>
    <path d="M280.11,295.93c-6.84,0-7.33,7.14-7.33,7.14v21s1.3,6.19,7.33,6.19,7.33-4.23,7.33-4.23v-23S287,295.91,280.11,295.93Z" transform="translate(-20.33 -21.91)"/>
    <path d="M278,194.43V129.28l-18.79-30h-6l-18.52,27.53v41.61l-16.56-10-0.77-88.49s-5.66-34.18-33-48c0,0-31.89,14.2-33.43,48.82s0,86.76,0,86.76l-16.53,9.16V129.53L115.4,99.24h-6.06L90.67,127v63.86L21.28,229.32l-0.94,31.46H90.67V284h43.68V260.77h20L142,294.27h83.41L213.5,260.77h21.14v21.67H278V260.77h61.71V231.53Z" transform="translate(-20.33 -21.91)"/>
  </g>
</svg>
