<svg id="sun" xmlns="http://www.w3.org/2000/svg" viewBox="0 0 360 341.93">
  <title>sun</title>
  <path d="M280.22,143.14" transform="translate(0 -9.01)" stroke="#000" stroke-miterlimit="10" stroke-width="5.02"/>
  <path d="M73.15,151.21" transform="translate(0 -9.01)" stroke="#000" stroke-miterlimit="10" stroke-width="4.75"/>
  <circle cx="180.96" cy="173.12" r="53.7"/>
  <g>
    <line x1="239.24" y1="114.07" x2="301.57" y2="42.04"/>
    <polygon points="237 112.13 301.57 42.04 241.48 116 237 112.13"/>
  </g>
  <g>
    <line x1="126.4" y1="222.27" x2="64.07" y2="294.3"/>
    <polygon points="128.64 224.21 64.07 294.3 124.17 220.34 128.64 224.21"/>
  </g>
  <g>
    <line x1="186.48" y1="246.67" x2="186.37" y2="341.93"/>
    <polygon points="189.44 246.68 186.37 341.93 183.52 246.67 189.44 246.68"/>
  </g>
  <g>
    <line x1="181.38" y1="95.25" x2="180.55"/>
    <polygon points="178.42 95.27 180.55 0 184.34 95.22 178.42 95.27"/>
  </g>
  <g>
    <line x1="95.24" y1="172.29" y2="173.94"/>
    <polygon points="95.29 175.25 0 173.94 95.19 169.33 95.29 175.25"/>
  </g>
  <g>
    <line x1="264.77" y1="172.29" x2="360" y2="170.21"/>
    <polygon points="264.71 169.33 360 170.22 264.83 175.25 264.71 169.33" fill="#020202"/>
  </g>
  <g>
    <line x1="239.24" y1="222.4" x2="321.75" y2="283.78"/>
    <polygon points="241.2 219.77 321.75 283.78 237.28 225.03 241.2 219.77"/>
  </g>
  <g>
    <line x1="112.26" y1="119.19" x2="30.3" y2="58.06"/>
    <polygon points="110.31 121.8 30.3 58.05 114.2 116.57 110.31 121.8"/>
  </g>
</svg>
